<svg xmlns="http://www.w3.org/2000/svg" x="0px" y="0px" width="100" height="100" viewBox="0 0 512 512">
<path fill="#D6E5E5" d="M462.3 312.3c-2.8-8.4-7.6-15.8-11.8-23.6-.7 2.7-1.5 5.3-2.6 7.9.1.8.1 1.6-.2 2.4.6 1.6 1.3 3.2 1.8 4.4 1.2 3.4 2.5 6.8 4 10.2 2.2 5 4.7 10.5 8.9 14.2 1.4-3.9 2.7-7.9 3.9-11.9C464.5 315.5 463 314.4 462.3 312.3zM469.3 287.3c-3-6.2-5.1-12.8-8-19-1.5-3.2-3.1-7.1-5.5-10.1-.6 3.4-1.1 6.9-1.6 10.3.2.3.3.7.4 1.2 2.8 11.7 10.1 21.3 15.2 32 .8-3.9 1.6-7.7 2.2-11.6C470.9 289.5 469.9 288.6 469.3 287.3zM107.3 233.3c-5.5-16.8-7.3-34.5-12.6-51.4-4.8-15.3-10.7-30.3-13.9-46-2.5 3.4-4.8 7-7.1 10.5 1.6.3 3.1 1.4 4 3.3 6.6 15.1 10.6 31 15.2 46.8 2.1 7.1 4.1 14.1 5.6 21.4 1.3 6.2 2.6 12.4 5 18.3 1.3-.9 2.5-1.7 3.8-2.6C107.3 233.5 107.3 233.4 107.3 233.3zM94.3 242.3c-3.1-6.5-4.6-13.4-6.1-20.4-1.5-7.4-3.6-14.6-5.7-21.8-4.3-15-8.2-30.1-14.3-44.5-6.5 11.6-11.7 23.8-15.5 36.5 1.8.2 3.3 1.3 3.9 3.6.6 2.4.8 5 3.3 5.9 4.6 1.6 3.7 6.7.6 9.1 1.5 3.6 3.3 7.1 4.7 10.7 2.1 5.3 3.7 10.7 5.5 16.1 1.9.5 3.3 2.1 3.3 4.7v5c0 1.7-.7 3.1-1.6 4.1.8 1.7 1.5 3.4 2.2 5.1 2-1.1 3.9-2.3 5.8-3.6.9-.6 1.8-1.2 2.7-1.9-2.6-2.2-4.3-5.8-5.7-8.5-3.1-6.2-5.5-12.9-7.7-19.5-4-12.1-6.9-24.6-11.3-36.6-2.4-6.7 7.9-10.3 10.4-3.6 3.9 10.6 6.4 21.7 9.9 32.4 2.2 6.7 4.4 13.5 7.3 19.9.9 2 1.9 4.1 3.1 6 .5.7.7 1 .8 1.1 1.4.2 2.4.8 3 1.6.5-.4 1-.7 1.5-1.1C94.4 242.5 94.3 242.4 94.3 242.3zM48.5 210c-.5 2.6-.9 5.2-1.2 7.9 1-.9 2.3-1.5 3.7-1.6C50.1 214.2 49.2 212.1 48.5 210zM112 412.9c0-2.3 1.1-4 2.7-4.9-1.9-1.3-3.2-3.6-2.6-5.9-1.2 2.5-4 4.1-7.1 2.3-4.2-2.4-7.2-6-9.5-10 4 11.4 8.9 22.5 13.8 33.5 2.3 2 4.6 3.9 6.9 5.8C113.9 427 112.1 420.2 112 412.9zM86.2 401c-.3.5-.7.9-1.1 1.3 1 1.2 2 2.5 3 3.7C87.5 404.4 86.9 402.7 86.2 401zM389.2 91c.1.8.2 1.5.3 2.3.9-.2 1.9-.1 2.8.1C391.2 92.6 390.2 91.8 389.2 91zM380 124.9c0-12.9.1-26-2.7-38.6-.3-1.4-.1-2.6.4-3.7-2.7-1.8-5.3-3.6-8.1-5.4 2.6 17.3 6.1 34.3 9.8 51.4.2-1 .4-2.1.6-3.1C380 125.3 380 125.1 380 124.9zM378.1 145.4c-2.7 1.2-6.1.6-6.9-3.1-5.1-22.7-10.1-45.4-13.3-68.4-.2-1.3 0-2.4.5-3.2-2.7-1.5-5.4-3-8.1-4.4 1.5 14.6 5.2 28.8 7.9 43.2 2.7 14.6 2.2 29.8 6.4 44.1.2.7.3 1.4.2 2.1 2.8-2 5.6-3.9 8.5-5.5.6-1.8 2.1-3.3 4.6-3.3h.9C378.6 146.5 378.3 146 378.1 145.4zM351.6 165.3c2.2-1.4 4.2-2.9 6.3-4.5-1.6-.3-3.1-1.4-3.7-3.5-4.5-15.3-3.9-31.4-6.9-46.9-3.1-16.1-7.3-32.1-8.4-48.5 0-.4 0-.7 0-1-5-2.2-10-4.2-15.2-6.1-.6.8-1.4 1.5-2.6 1.9-3.4 1.2-6.8 2.3-10.2 3.6 2.1.4 3.8 2 3.9 4.8.2 17.6 7 33.7 10.7 50.6 4.1 18.4 7.1 37 13 55 .2.6.3 1.2.3 1.8.7-.3 1.3-.7 2-1-.9-36.7-22.6-69.6-22-106.6.1-7 11.1-7.9 11-.8C329.3 99.1 349 130.7 351.6 165.3z"></path><path fill="#D6E5E5" d="M472.3,261.3c-4.3-12.9-14.4-23-18.4-36c-0.4,2.4-2.3,4.7-5,4.7h-2c-3.8,0-5.8-3.2-5.7-6.1c-10.8-14.4-23.1-27.7-33.8-42.1c-4.9-6.5-9.7-12.8-16.5-17.5c-2.8-1.9-6-3.7-8.4-6.2c-11.1,4.7-19.6,14.2-30.3,19.8c-11.3,5.9-23.1,10.8-33.6,18.2c-0.6,0.4-1.2,0.7-1.8,0.9c-2.5,11-3,22.3-5.2,33.3c-2.6,12.9-6.4,26.3-6.6,39.6c1.4-0.2,2.8,0.2,4.1,1.6c1.6,1.6,3.2,3.2,4.9,4.8c2.4-0.6,5,0.4,5.7,3.5c0.1,0.6,0.3,1.2,0.4,1.8c14.3,11.9,30.1,22.5,37.6,40.2c2.8,6.6-7.7,10.1-10.4,3.6c-4.5-10.7-13-18.7-22.2-26.1c1.3,4,2.7,7.9,4.1,11.8c3-1.7,8-0.5,8.8,4.1c1,5.9,1.9,11.9,3.7,17.6c0.7,2.2,0.1,4.1-1.2,5.4c1.1,2.4,2.1,4.8,3.2,7.2c2.4-4.5,10.4-4.3,10.3,1.8c-0.4,17.2-9.7,31.9-13.1,48.5c-1.4,6.9-12.2,4.9-10.8-2.1c2.5-12.6,9.3-24.4,11.9-36.9c-2.5,0.6-5.4-0.3-6.7-3.2c-9.7-21.4-19.4-43.1-25-65.9c-1.9-1.6-3.7-3.1-5.4-4.8c0,0.1,0.1,0.3,0.1,0.4c5.4,30.7,27.6,55.6,31,87c0.8,7.1-10.2,7.9-11,0.8c-3.4-31.1-25.6-56.3-31-87c-0.8-4.6,3.6-6.5,7.1-5.3c-0.6-0.9-0.8-1.9-0.8-2.9c-3,0.6-6.3-0.8-6.3-4.8v-2c0-0.4,0-0.8,0.1-1.1c0.6-12.8,3.8-25.5,6.3-38c2.6-13.1,2.9-26.5,6.6-39.4c0.9-3.1,3.7-4.3,6.2-4.1c5.3-3.7,11-6.6,16.7-9.4c-0.7-0.6-1.4-1.4-1.7-2.6c-6.1-18.5-8.5-37.8-13.4-56.6c-4.5-17-10.7-34-10.9-51.8c0-1.1,0.2-2.1,0.7-2.8c-2.6,1.3-5.1,3-5.8,5.5c-0.8,2.9-3.2,4.2-5.6,4.2c0.3,1.8,0.6,3.6,1,5.4c4.2-2.9,11.2,1.4,8.2,6.8c-2.8,5.1-0.1,14.1,1.2,19.4c1.7,7.2,3.9,14.3,6.1,21.4c0.8,2.8-0.4,5-2.3,6.3c2,12.1,2.4,25.1,8.7,35.5c3.7,6.1-5.5,12.2-9.1,6.2c-8.4-13.9-7.5-30.6-11.6-45.8c-5-18.5-10.3-36.9-13.3-55.8c-0.7-4.1,2.9-6.1,6.1-5.6c2.6-9.1,11.1-13.4,19.8-16.6c-25.9-7.2-53-9.6-79.9-6.1c-41.9,5.4-81.6,25.9-113.1,54.2c1.5,0.7,2.8,2.1,3,4.3c2.3,16.9,12.5,31.5,17.7,47.5c4.9,14.9,9.1,29.9,11.5,45.4c0.3-0.8,0.6-1.7,0.9-2.5c0.9-2.9,1.8-5.8,2.8-8.7c-2.3-0.3-4.5-1.9-4.8-4.8c-2.1-16.2-9.6-30.9-13.7-46.6c-1.2-4.8,3.4-8,7-7.2c-5.3-5.6-10.1-11.9-14.6-17.3c-2.4-0.1-4.6-1.7-4.6-4.9v-2c0-4.2,5.6-8.5,9.1-4.6c6.3,7,11.8,14.7,18.5,21.4c5.9,5.9,13.4,12.9,22.4,12.2c7.1-0.6,7.9,10.4,0.8,11c-11.2,0.9-20.3-4.8-28.3-12.4c0,0,0,0.1,0,0.1c1.3,5.1,2.9,10,4.6,15c2.6-1,6-0.3,7.4,3c1.9,4.7,4.2,9.2,5,14.2c0.9-2,1.9-3.9,2.9-5.8c3.3-6.2,13.2-1.4,9.9,4.9c-6.1,11.4-10,23.6-14,35.9c-3.2,9.9-11.1,19.4-10.5,30.2c0.4,7.1-10.6,7.9-11,0.8c-0.4-7.8,2.4-14.5,5.5-21.1c-2.5-0.1-5.1-1.6-5.5-4.9c-2.3-17.7-6.8-35.8-13.4-52.4c-5.7-14.4-13.7-28.2-16.3-43.6c-2.6,2.5-5.1,5.1-7.6,7.7c-4.2,4.5-8.3,9.3-12.2,14.1c1.6,0.7,3,2.1,3.4,4.3c3.1,17.5,10.4,33.8,15.2,50.8c4.3,15.2,6.3,30.9,11,46c2.7-1.4,5.5-2.7,8.5-3.4c-0.2-0.3-0.4-0.6-0.6-0.9c-7.4-13.1-8-28.6-12.2-42.8c-5-16.9-11.5-33.3-15.5-50.5c-1.6-6.8,8.8-10.5,10.4-3.6c3.9,17.2,10.6,33.6,15.5,50.5c3.7,13,4.1,28.3,10.9,40.3c1.7,2.9,0.4,5.9-1.7,7.5c3.8,2.6,3.3,9.9-2.5,10.1c-4.5,0.1-9.8,3.6-14,6.2c-6.5,4.1-12.7,8.6-18.9,13.1c-5.2,3.8-10.4,7.8-16,10.9c-3.3,1.8-8.3,4.6-12,2.2c-1.7-1.1-2.5-2.8-2.7-4.5c-0.9-0.6-1.6-1.4-2.1-2.6c-5-12.5-12.3-23.9-17.7-36.2c-0.6,6.6-0.7,13.2-0.4,19.9c0.1,0.6,0.2,1.2,0.1,1.9c0,0.2,0,0.3,0,0.5c0.1,1.2-0.2,2.2-0.6,3c-3.1,18.3-3.5,36.8-1.3,55c0.2,0.1,0.3,0.2,0.5,0.3c5.8,3.4,11.1,7.6,16.4,11.6c0.4-6.4,0.9-12.7,1.1-19.1c0.2-7.7,0.5-16.2,5.9-22.2c4.7-5.3,13,2,8.3,7.3c-4.2,4.7-3.1,13.1-3.3,18.9c-0.2,7.4-1.1,14.9-1.3,22.3c4.4,4-0.2,12.4-6,9.1c-6.9-4-12.9-9.1-19.3-13.7c0.9,4.5,1.9,8.9,3.1,13.3c2.8-1.8,6.9-1.5,7.8,2.6c4.1,16.9,14.3,31.1,22.2,46.3c-0.6-2.2-1.1-4.5-1.6-6.7c-0.8-3.6,1.7-6.3,4.5-7.1c-3-5.5-6.3-10.8-9.9-15.6c-4.2-5.7,4.9-11.9,9.1-6.2c6.5,8.9,11.9,19.1,16.6,29.1c2.9,6.2,4.9,16.5,11.3,20.1c2.7,1.5,3.3,4.2,2.6,6.5c0.2-0.4,0.5-0.8,0.8-1.2c5.8-6.6,14.6-9.1,21.6-14c9.1-6.4,17.9-13.1,27.4-18.9c6-3.7,12.2,5.4,6.2,9.1c-9,5.4-17.3,11.7-25.9,17.8c-6.5,4.6-15.8,7.2-21.1,13.3c-0.3,0.3-0.6,0.6-0.9,0.8c1.3,0.8,2.2,2.1,2.2,4.1c0.2,11.2,4.9,21.2,8.7,31.6c0.2,0.5,0.3,1,0.3,1.4c3.8,2.4,7.6,4.7,11.6,6.8c21.8,11.7,45.5,18.4,70,21.6c10.2,1.3,20.5,2,30.9,2.1c-2.3-7.4-5.3-14.6-5.5-22.7c-0.2-7.1,10.8-7.9,11-0.8c0.2,8.2,3.7,15.5,5.9,23.3c34.7-1.4,69.1-10.1,99.8-26.4c2.1-1.1,4.2-2.3,6.2-3.4c-1-1.4-2-2.6-2.9-3.9c-2-3-3.3-6.1-4-9.7c-0.5-3,2.3-5.7,5.1-5.9c3.2-0.2,5.4,2.1,5.9,5.1c0.6,3.2,3.3,5.7,5,8.3c0.1,0.2,0.2,0.3,0.3,0.5c32.3-20.5,59.4-48.9,77.7-82.4c-0.4-0.2-0.8-0.5-1.1-0.8c-6.2-5.6-10.1-14.2-13.3-21.8c-2.5-6-5-12.4-5.4-19c-7.2,6-18.9,8.1-27.2,10.2c-4.7,1.2-9.4,2.5-14.1,3.6c-2.6,0.6-10.9,2.1-12.2,4.1c-0.3,1-0.9,1.8-1.7,2.4c-1.2,0.9-2.7,1.1-4.1,0.7c-1.7-0.3-2.9-1.4-3.7-2.7c-0.7-1.1-1.1-2.5-0.8-4c0.1-1,0.5-1.9,1.1-2.7c2.7-4.1,8.8-5.9,13.2-7.1c4.8-1.3,9.6-2.4,14.4-3.7c5.9-1.5,11.9-2.9,17.7-4.9c4.4-1.5,10-3,12.8-7c2.9-4.1,7.9-1.6,9.1,2.2c3.1-0.1,6.8,2.3,6.5,6.4c-0.4,5.9,3.2,13.5,5.6,18.9c2.2,5,4.8,10.9,8.7,15c1.2-2.5,2.3-5,3.4-7.5c0.3-0.7,0.6-1.4,0.9-2.1c-0.9-0.1-1.8-0.5-2.6-1.2c-6-4.9-9.7-12.5-12.7-19.5c-1.6-3.7-3.1-7.5-4.4-11.4c-1-3-2.8-6.5-2.7-9.7c0-1.6,0.8-3.1,2-4.3c6.2-15.7,5.2-33.3,10.1-49.4c2-6.7,12.8-4.7,10.8,2.1c-0.1,0.3-0.2,0.7-0.3,1c7.8,5.2,12,15,15.6,24.5c0.1-2,0.2-3.9,0.3-5.9C473.5,263.6,472.7,262.6,472.3,261.3z M185,134c4.4-0.3,8-2.6,11.9-4.5c3.5-1.7,7.3-2.4,11.1-3.2c5.8-1.2,11.5-2.3,16.9-4.6c9.2-3.8,18.5-8.7,28.5-10.2c3.9-0.6,8.5-0.5,11.4,2.5c5,5.2,7.7,13.6,11,20c1.3,2.4,2.6,4.8,4.1,7.1c-4.8-13.4-7.3-27.6-10-41.6c-0.5,1.4-0.8,2.8-1,4.2c-1,7-11.8,4.9-10.8-2.1c0.8-5.8,3.7-11.4,6.1-16.7c1-2.3,5.9-11.2,4.8-13.2c-0.7-1.2-0.9-2.5-0.7-3.6c-0.1-0.1-0.3-0.2-0.4-0.3c-4.1-4.1-8.2-8.5-9.6-14.3c-0.7-2.9,0.3-5.9,3.4-7c2.6-0.9,6.3,0.4,7,3.4c0.9,4,3.6,6.9,6.4,9.7c1.3,1.3,1.9,3,1.8,4.6c0.4,0.4,0.8,0.8,1.1,1.4c3.4,6.1,1.5,12.6-1.4,19.2c1,0.6,1.7,1.6,2,3.1c4.1,19.5,6.6,39.8,15,58c2,4.4-2.2,7.5-6,6.9c5.4,7.7,10.9,15.4,15,24.1c3,6.4-7.4,10-10.4,3.6c-6.9-14.5-18.3-26-25.6-40.2c-1.9-3.7-3.7-7.4-5.6-11c-1.1-2-2.1-4.1-3.3-6c-0.2-0.3-0.4-0.6-0.5-0.8c-0.6,0.1-2.2,0.1-3,0.2c-1.8,0.3-3.5,0.9-5.2,1.4c-8.3,2.7-16,7.1-24.3,9.7c-6.5,2-13.3,2.9-19.8,4.7c-6.7,1.8-11.8,6.3-19,6.7C178.8,145.4,177.9,134.4,185,134z M184.3,306.3c-7.1-24-19.3-45.8-34.4-65.7c-4.3-5.7,4.9-11.8,9.1-6.2c15.6,20.6,28.2,43.4,35.6,68.3C196.7,309.4,186.3,313.1,184.3,306.3z M233.3,418.7c1.2,2.3,2.4,4.5,3.7,6.7c3.7,6.1-5.4,12.2-9.1,6.2c-5.1-8.4-7.9-18.5-13.9-26.2c-5.6-7.2-12.2-13.5-15.7-22c-2.7-6.6,7.7-10.2,10.4-3.6c2.6,6.3,7.6,10.8,11.8,15.9c-3.1-8.5-6.2-17-10.1-25.2c-4.4-9.3-9-18.6-12.6-28.3c0,5,0.2,10,0.2,15c0,7.1-10.9,7.9-11,0.8c0-13.1-1.2-26.7,2.1-39.5c1.7-6.7,12-4.9,10.9,1.6c1.7,0.2,3.2,1.3,3.7,3.6c3.5,15.8,11.1,30.1,17.9,44.6c6.6,14.2,10.8,29.1,17.1,43.4C240.5,415.8,236.9,418.8,233.3,418.7z M317.3,400.3c-6.6-22.4-14.8-44.2-22.8-66.1c-3.8-10.4-7.7-20.8-11.6-31.2c-3.1-8.4-7.4-16.3-9.3-25c0,0,0,0,0,0c-1.2,0.8-2.5,1.5-3.8,2.2c0.1,0.3,0.1,0.5,0.2,0.8c1.5,9.8,7.3,18.7,10.5,28c3.8,10.6,8,21.1,12.3,31.5c7.3,18,10.9,38.3,21.2,54.9c3.8,6-5.4,12.2-9.1,6.2c-10.9-17.4-14.8-38.5-22.5-57.4c-4.5-11-9-22-12.9-33.3c-3-8.8-7.8-16.8-9.9-25.8c-1.1,0.4-2.2,0.9-3.3,1.3c3.3,10.8,7.2,21.5,11.4,32.1c4.7,12,10.5,23.9,14.2,36.3c5.1,16.7,5.1,38,17,51.7c4.7,5.3-4.5,11.4-9.1,6.2c-12.5-14.3-12.7-35.7-18-53.1c-3.9-12.7-9.7-25-14.6-37.4c-4.2-10.6-8.1-21.3-11.4-32.1c-2.5,0.8-5,1.6-7.5,2.3c1.7,9.7,7.7,18.7,11.3,27.7c4.6,11.6,9.7,23,14.2,34.6c8.4,21.2,11.7,44.9,23.1,64.8c0.1,0.2,0.2,0.4,0.3,0.6c6.8-2.1,13-5.1,18-10.2c4.9-5.1,13.2,2.2,8.3,7.3c-7.1,7.4-16.4,11.3-26.2,13.9c-8.9,2.4-18.6,3.7-26.8,8c-6.2,3.2-12.5-5.9-6.2-9.1c0.8-0.4,1.6-0.8,2.4-1.1c-4.8-5.3-7.6-12.8-9.8-19.3c-2.7-8.1-4.5-16.4-7.4-24.4c-9.7-27.3-21-54-29.3-81.8c0-0.1-0.1-0.2-0.1-0.3c-1.2,0.7-2.5,1.3-3.7,2.1c-6.1,3.7-12.2-5.4-6.2-9.1c9.2-5.6,19.3-8.9,29.5-12.1c0.6-0.3,1.3-0.5,2-0.6c4.6-1.4,9.2-2.8,13.7-4.4c1.3-1.3,3.2-2,4.9-1.8c4.2-1.6,8.3-3.4,12.2-5.5c0.2-3.8,5.2-7.4,9.3-4.2c1.2,0.9,2.1,1.7,2.8,2.8c3-2,8.3-0.8,9.1,3.9c1.5,9.9,7.1,19.4,10.6,28.7c3.9,10.4,7.8,20.8,11.6,31.3c7.5,20.7,15.2,41.4,21.5,62.6C329.6,403.4,319.3,407.1,317.3,400.3z"></path><path fill="#D6E5E5" d="M463.3 192.2c-13.2-37.3-37.4-70.5-68-96.2.1.2.2.4.3.6 2.7 6.6 0 14.1-2 20.5-2.7 8.4-4.6 17-4.7 25.9 0 1.7-.7 3.1-1.7 4.1 1.3.8 2.4 2.1 2.7 3.9-.5-2.5.7-.2 2 .7 1.3 1 2.7 1.9 4.1 2.8 2.6 1.8 5.2 3.6 7.5 5.7 5.7 5.2 10 11.6 14.7 17.6 11.4 14.6 23.9 28.4 34.8 43.4 0 0 0 .1.1.1.1-2.2 1.6-4 3.4-4.8-2.4-5.7 6-11 9.6-5.2 1.7 2.7 3.3 5.5 4.8 8.3C469 210.4 466.5 201.2 463.3 192.2zM253.5 358.2c-5.1-12.8-10.7-25.3-15.6-38.2-3.2-8.4-8-15.9-10-24.5-2.6.9-5.2 1.8-7.8 2.8.2.4.4.8.5 1.2 8 26.9 18.6 52.9 28.3 79.2 3 8.1 4.8 16.5 7.5 24.6 2.2 6.8 4.6 15.4 10.6 19.9.6.5 1.1 1 1.4 1.5 2.6-.7 5.3-1.3 8-1.9C265.6 402.7 262 379.5 253.5 358.2z"></path><path d="M194.6 302.7c-7.4-24.9-20-47.6-35.6-68.3-4.3-5.6-13.4.5-9.1 6.2 15.1 19.9 27.2 41.7 34.4 65.7C186.3 313.1 196.7 309.4 194.6 302.7zM302.6 176.7c-4.1-8.6-9.6-16.3-15-24.1 3.8.5 8-2.5 6-6.9-8.4-18.2-10.9-38.5-15-58-.3-1.5-1.1-2.5-2-3.1 2.9-6.5 4.8-13.1 1.4-19.2-.3-.6-.7-1.1-1.1-1.4.1-1.7-.6-3.4-1.8-4.6-2.8-2.8-5.5-5.7-6.4-9.7-.7-2.9-4.4-4.3-7-3.4-3.1 1.1-4 4.1-3.4 7 1.3 5.8 5.5 10.2 9.6 14.3.1.1.3.2.4.3-.2 1.1 0 2.4.7 3.6 1.1 2-3.7 10.9-4.8 13.2-2.4 5.3-5.2 10.8-6.1 16.7-1 7 9.8 9.1 10.8 2.1.2-1.4.6-2.8 1-4.2 2.7 14 5.2 28.2 10 41.6-1.4-2.3-2.8-4.7-4.1-7.1-3.3-6.4-6-14.8-11-20-2.9-3-7.6-3.1-11.4-2.5-10 1.5-19.3 6.4-28.5 10.2-5.4 2.3-11.2 3.4-16.9 4.6-3.8.8-7.6 1.5-11.1 3.2-3.9 1.9-7.4 4.2-11.9 4.5-7.1.4-6.2 11.4.8 11 7.2-.4 12.3-4.9 19-6.7 6.6-1.8 13.3-2.7 19.8-4.7 8.3-2.5 16-6.9 24.3-9.7 1.7-.6 3.4-1.1 5.2-1.4.8-.2 2.4-.2 3-.2.1.2.3.5.5.8 1.2 2 2.3 4 3.3 6 1.9 3.7 3.7 7.4 5.6 11 7.3 14.2 18.7 25.8 25.6 40.2C295.3 186.6 305.7 183.1 302.6 176.7zM238.6 411.7c-6.3-14.2-10.6-29.2-17.1-43.4-6.8-14.6-14.3-28.8-17.9-44.6-.5-2.3-2-3.4-3.7-3.6 1.1-6.5-9.2-8.3-10.9-1.6-3.2 12.8-2.1 26.4-2.1 39.5 0 7.1 11 6.2 11-.8 0-5-.2-10-.2-15 3.6 9.7 8.2 18.9 12.6 28.3 3.9 8.2 7 16.7 10.1 25.2-4.2-5.1-9.2-9.6-11.8-15.9-2.7-6.5-13.1-2.9-10.4 3.6 3.5 8.6 10.1 14.8 15.7 22 6 7.7 8.8 17.9 13.9 26.2 3.7 6.1 12.8-.1 9.1-6.2-1.3-2.2-2.5-4.4-3.7-6.7C236.9 418.8 240.5 415.8 238.6 411.7zM327.6 396.7c-6.3-21.2-14-41.8-21.5-62.6-3.8-10.5-7.7-20.9-11.6-31.3-3.5-9.3-9.1-18.8-10.6-28.7-.7-4.8-6.1-5.9-9.1-3.9-.7-1.1-1.6-1.9-2.8-2.8-4.1-3.1-9.1.4-9.3 4.2-3.9 2.1-8 3.9-12.2 5.5-1.7-.2-3.6.5-4.9 1.8-4.5 1.6-9.1 3-13.7 4.4-.7.1-1.4.3-2 .6-10.2 3.2-20.3 6.5-29.5 12.1-6.1 3.7.1 12.8 6.2 9.1 1.2-.7 2.4-1.4 3.7-2.1 0 .1 0 .2.1.3 8.3 27.8 19.6 54.5 29.3 81.8 2.8 8 4.7 16.4 7.4 24.4 2.2 6.5 5 14 9.8 19.3-.8.4-1.6.7-2.4 1.1-6.3 3.2-.1 12.3 6.2 9.1 8.3-4.2 18-5.6 26.8-8 9.8-2.6 19.1-6.6 26.2-13.9 5-5.1-3.3-12.3-8.3-7.3-5 5.1-11.2 8-18 10.2-.1-.2-.2-.4-.3-.6-11.4-19.9-14.7-43.6-23.1-64.8-4.6-11.6-9.7-23-14.2-34.6-3.6-9-9.6-18-11.3-27.7 2.5-.8 5-1.5 7.5-2.3 3.3 10.9 7.3 21.5 11.4 32.1 4.8 12.4 10.7 24.6 14.6 37.4 5.3 17.4 5.4 38.8 18 53.1 4.6 5.3 13.8-.8 9.1-6.2-12-13.7-12-35-17-51.7-3.8-12.3-9.5-24.3-14.2-36.3-4.2-10.6-8.1-21.2-11.4-32.1 1.1-.4 2.2-.8 3.3-1.3 2.1 9 6.9 17 9.9 25.8 3.9 11.3 8.4 22.3 12.9 33.3 7.7 18.9 11.6 39.9 22.5 57.4 3.8 6 12.9-.1 9.1-6.2-10.3-16.5-14-36.9-21.2-54.9-4.2-10.5-8.5-20.9-12.3-31.5-3.3-9.2-9-18.2-10.5-28 0-.3-.1-.5-.2-.8 1.3-.7 2.5-1.4 3.8-2.2 0 0 0 0 0 0 2 8.7 6.2 16.7 9.3 25 3.9 10.4 7.8 20.8 11.6 31.2 8 21.9 16.2 43.8 22.8 66.1C319.3 407.1 329.6 403.4 327.6 396.7zM253.5 358.2c8.5 21.2 12.1 44.4 22.9 64.7-2.7.6-5.3 1.3-8 1.9-.3-.5-.8-1.1-1.4-1.5-6-4.5-8.4-13.1-10.6-19.9-2.7-8.2-4.5-16.6-7.5-24.6-9.8-26.3-20.3-52.3-28.3-79.2-.1-.5-.3-.9-.5-1.2 2.6-1 5.2-1.9 7.8-2.8 2 8.6 6.9 16.1 10 24.5C242.8 332.9 248.4 345.5 253.5 358.2z"></path><path d="M431.3,115.6c-32.2-37-75.5-63.8-122.8-76.8c-48.1-13.2-98.5-9-143.5,12.5C92.3,86.1,30.8,161.4,35.3,245.3c-8.8,48.4,0.4,97.5,25,140.1c23.8,41,62.3,73.7,107.3,88.9c66.2,22.4,139.9,13.9,199.7-19.7c0.7,0.3,1.6,0.5,2.5,0.4c2.4-0.2,4.9-2.3,5.1-4.9c22.4-13.7,42.7-31.1,59.6-51.8c32.6-40,51.2-89.9,51.1-141.6C485.5,205.2,465,154.3,431.3,115.6z M392.2,93.5c-0.9-0.3-1.8-0.3-2.8-0.1c-0.1-0.8-0.2-1.5-0.3-2.3C390.2,91.8,391.2,92.6,392.2,93.5z M388.9,143c0.1-8.8,2-17.5,4.7-25.9c2.1-6.4,4.8-13.9,2-20.5c-0.1-0.2-0.2-0.4-0.3-0.6c30.6,25.6,54.8,58.8,68,96.2c3.2,9,5.7,18.2,7.5,27.5c-1.5-2.8-3.1-5.6-4.8-8.3c-3.5-5.7-11.9-0.5-9.6,5.2c-1.8,0.9-3.3,2.6-3.4,4.8c0,0,0-0.1-0.1-0.1c-10.9-15-23.4-28.8-34.8-43.4c-4.7-6.1-9-12.4-14.7-17.6c-2.3-2.1-4.9-4-7.5-5.7c-1.4-0.9-2.7-1.8-4.1-2.8c-1.3-0.9-2.5-3.3-2-0.7c-0.3-1.9-1.4-3.2-2.7-3.9C388.2,146.1,388.9,144.8,388.9,143z M377.6,82.6c-0.5,1.1-0.7,2.3-0.4,3.7c2.8,12.6,2.7,25.7,2.7,38.6c0,0.2,0,0.4,0,0.6c-0.2,1-0.4,2.1-0.6,3.1c-3.8-17-7.3-34.1-9.8-51.4C372.3,79,375,80.8,377.6,82.6z M358.5,70.7c-0.5,0.9-0.7,1.9-0.5,3.2c3.2,23,8.2,45.7,13.3,68.4c0.8,3.7,4.2,4.4,6.9,3.1c0.2,0.6,0.4,1.1,0.7,1.6H378c-2.6,0-4.1,1.4-4.6,3.3c-3,1.6-5.8,3.5-8.5,5.5c0-0.7,0-1.4-0.2-2.1c-4.2-14.3-3.6-29.5-6.4-44.1c-2.7-14.4-6.4-28.6-7.9-43.2C353.1,67.7,355.8,69.2,358.5,70.7z M321.3,56.7c1.1-0.4,2-1.1,2.6-1.9c5.1,1.8,10.2,3.9,15.2,6.1c0,0.3,0,0.7,0,1c1.1,16.4,5.3,32.4,8.4,48.5c3,15.6,2.5,31.6,6.9,46.9c0.6,2.1,2.1,3.2,3.7,3.5c-2.1,1.5-4.2,3-6.3,4.5C349,130.7,329.3,99.1,329.9,64c0.1-7.1-10.8-6.2-11,0.8c-0.7,37,21.1,69.8,22,106.6c-0.7,0.3-1.3,0.7-2,1c0-0.6-0.1-1.2-0.3-1.8c-5.9-18-8.9-36.6-13-55c-3.7-17-10.5-33-10.7-50.6c0-2.8-1.8-4.4-3.9-4.8C314.4,59,317.9,57.9,321.3,56.7z M80.7,135.8c3.3,15.7,9.2,30.7,13.9,46c5.2,16.9,7.1,34.6,12.6,51.4c0,0.1,0.1,0.2,0.1,0.3c-1.3,0.8-2.6,1.7-3.8,2.6c-2.4-5.9-3.8-12.1-5-18.3c-1.5-7.3-3.5-14.3-5.6-21.4c-4.6-15.8-8.6-31.7-15.2-46.8c-0.8-1.9-2.3-2.9-4-3.3C75.9,142.8,78.3,139.3,80.7,135.8z M68.2,155.6c6,14.4,9.9,29.5,14.3,44.5c2.1,7.3,4.2,14.4,5.7,21.8c1.4,7,3,13.9,6.1,20.4c0.1,0.1,0.1,0.2,0.2,0.3c-0.5,0.4-1,0.7-1.5,1.1c-0.7-0.8-1.7-1.4-3-1.6c-0.1-0.2-0.3-0.5-0.8-1.1c-1.3-1.9-2.2-3.9-3.1-6c-2.9-6.5-5.1-13.2-7.3-19.9c-3.5-10.7-6.1-21.8-9.9-32.4c-2.4-6.7-12.8-3-10.4,3.6c4.4,11.9,7.3,24.5,11.3,36.6c2.2,6.6,4.6,13.2,7.7,19.5c1.3,2.7,3.1,6.3,5.7,8.5c-0.9,0.6-1.8,1.3-2.7,1.9c-1.9,1.3-3.8,2.5-5.8,3.6c-0.7-1.7-1.4-3.4-2.2-5.1c1-1,1.6-2.4,1.6-4.1v-5c0-2.6-1.5-4.1-3.3-4.7c-1.8-5.4-3.4-10.8-5.5-16.1c-1.4-3.6-3.1-7.1-4.7-10.7c3.1-2.3,4-7.4-0.6-9.1c-2.5-0.9-2.7-3.5-3.3-5.9c-0.6-2.3-2.1-3.4-3.9-3.6C56.5,179.4,61.8,167.2,68.2,155.6z M48.5,210c0.7,2.1,1.6,4.2,2.5,6.3c-1.4,0.1-2.7,0.7-3.7,1.6C47.6,215.2,48,212.6,48.5,210z M85.1,402.3c0.4-0.4,0.8-0.8,1.1-1.3c0.6,1.7,1.3,3.3,1.9,5C87.1,404.8,86.1,403.6,85.1,402.3z M109.3,427.9c-4.9-11-9.7-22.1-13.8-33.5c2.3,4,5.2,7.6,9.5,10c3.1,1.8,5.9,0.1,7.1-2.3c-0.6,2.3,0.6,4.7,2.6,5.9c-1.6,0.9-2.7,2.6-2.7,4.9c0.1,7.3,2,14.1,4.3,20.9C113.9,431.9,111.6,429.9,109.3,427.9z M462.4,327.7c-4.1-3.7-6.7-9.2-8.9-14.2c-1.5-3.3-2.8-6.7-4-10.2c-0.5-1.3-1.2-2.9-1.8-4.4c0.2-0.7,0.3-1.5,0.2-2.4c1-2.6,1.8-5.2,2.6-7.9c4.1,7.8,9,15.2,11.8,23.6c0.7,2.2,2.3,3.2,4,3.5C465,319.8,463.8,323.8,462.4,327.7z M469.8,301.7c-5-10.7-12.4-20.3-15.2-32c-0.1-0.4-0.2-0.8-0.4-1.2c0.5-3.5,1-6.9,1.6-10.3c2.4,3.1,4,6.9,5.5,10.1c2.8,6.3,4.9,12.8,8,19c0.6,1.3,1.6,2.2,2.7,2.7C471.4,293.9,470.7,297.8,469.8,301.7z M458.6,245.5c0.1-0.3,0.2-0.7,0.3-1c2-6.8-8.8-8.8-10.8-2.1c-4.8,16.1-3.9,33.6-10.1,49.4c-1.2,1.1-2,2.6-2,4.3c-0.1,3.2,1.7,6.7,2.7,9.7c1.3,3.9,2.8,7.6,4.4,11.4c3,7,6.7,14.6,12.7,19.5c0.8,0.7,1.7,1.1,2.6,1.2c-0.3,0.7-0.6,1.4-0.9,2.1c-1.1,2.5-2.2,5-3.4,7.5c-3.9-4.1-6.5-10-8.7-15c-2.4-5.4-6-12.9-5.6-18.9c0.3-4.1-3.3-6.6-6.5-6.4c-1.2-3.9-6.2-6.4-9.1-2.2c-2.8,4-8.4,5.6-12.8,7c-5.8,2-11.8,3.3-17.7,4.9c-4.8,1.3-9.6,2.3-14.4,3.7c-4.3,1.2-10.5,3-13.2,7.1c-0.6,0.7-1,1.7-1.1,2.7c-0.3,1.5,0.1,2.8,0.8,4c0.8,1.3,2,2.3,3.7,2.7c1.4,0.4,3,0.2,4.1-0.7c0.8-0.6,1.4-1.4,1.7-2.4c1.3-1.9,9.6-3.5,12.2-4.1c4.7-1.1,9.4-2.4,14.1-3.6c8.2-2.1,20-4.2,27.2-10.2c0.5,6.5,3,13,5.4,19c3.2,7.6,7.1,16.1,13.3,21.8c0.4,0.3,0.8,0.6,1.1,0.8c-18.3,33.6-45.5,61.9-77.7,82.4c-0.1-0.2-0.2-0.3-0.3-0.5c-1.7-2.6-4.4-5.2-5-8.3c-0.5-2.9-2.7-5.3-5.9-5.1c-2.7,0.2-5.6,3-5.1,5.9c0.7,3.6,2,6.6,4,9.7c0.9,1.3,1.9,2.6,2.9,3.9c-2.1,1.2-4.1,2.3-6.2,3.4c-30.7,16.3-65.1,25-99.8,26.4c-2.2-7.8-5.7-15-5.9-23.3c-0.2-7.1-11.1-6.2-11,0.8c0.2,8,3.1,15.2,5.5,22.7c-10.3-0.1-20.7-0.8-30.9-2.1c-24.5-3.2-48.2-9.9-70-21.6c-3.9-2.1-7.8-4.4-11.6-6.8c0-0.5-0.2-0.9-0.3-1.4c-3.8-10.4-8.5-20.4-8.7-31.6c0-2-0.9-3.4-2.2-4.1c0.3-0.2,0.6-0.5,0.9-0.8c5.3-6,14.5-8.6,21.1-13.3c8.5-6.1,16.9-12.3,25.9-17.8c6.1-3.7-0.1-12.8-6.2-9.1c-9.5,5.8-18.4,12.5-27.4,18.9c-7,5-15.8,7.4-21.6,14c-0.4,0.4-0.6,0.8-0.8,1.2c0.7-2.3,0.1-5-2.6-6.5c-6.4-3.6-8.4-13.9-11.3-20.1c-4.7-9.9-10.1-20.2-16.6-29.1c-4.2-5.7-13.3,0.4-9.1,6.2c3.5,4.9,6.9,10.2,9.9,15.6c-2.8,0.8-5.3,3.5-4.5,7.1c0.5,2.3,1,4.5,1.6,6.7c-7.9-15.3-18.2-29.5-22.2-46.3c-1-4.1-5.1-4.5-7.8-2.6c-1.2-4.4-2.2-8.8-3.1-13.3c6.4,4.6,12.5,9.7,19.3,13.7c5.8,3.3,10.3-5.1,6-9.1c0.2-7.4,1.1-14.9,1.3-22.3c0.2-5.8-0.9-14.3,3.3-18.9c4.7-5.3-3.5-12.5-8.3-7.3c-5.4,6-5.7,14.5-5.9,22.2c-0.2,6.4-0.7,12.7-1.1,19.1c-5.4-4-10.6-8.2-16.4-11.6c-0.2-0.1-0.3-0.2-0.5-0.3c-2.2-18.1-1.8-36.6,1.3-55c0.4-0.8,0.7-1.8,0.6-3c0-0.2,0-0.3,0-0.5c0.1-0.7,0-1.3-0.1-1.9c-0.3-6.7-0.2-13.3,0.4-19.9c5.4,12.3,12.7,23.7,17.7,36.2c0.5,1.2,1.2,2.1,2.1,2.6c0.1,1.7,0.9,3.4,2.7,4.5c3.7,2.4,8.7-0.4,12-2.2c5.6-3.1,10.8-7.2,16-10.9c6.2-4.5,12.4-9,18.9-13.1c4.1-2.6,9.5-6.1,14-6.2c5.8-0.2,6.3-7.5,2.5-10.1c2.1-1.6,3.3-4.6,1.7-7.5c-6.8-11.9-7.2-27.2-10.9-40.3c-4.8-16.9-11.5-33.3-15.5-50.5c-1.6-6.9-12-3.2-10.4,3.6c3.9,17.2,10.5,33.6,15.5,50.5c4.2,14.2,4.7,29.7,12.2,42.8c0.2,0.3,0.4,0.6,0.6,0.9c-2.9,0.7-5.8,2-8.5,3.4c-4.7-15.1-6.6-30.8-11-46c-4.8-17-12.1-33.3-15.2-50.8c-0.4-2.2-1.7-3.6-3.4-4.3c3.9-4.9,7.9-9.6,12.2-14.1c2.5-2.6,5-5.2,7.6-7.7c2.6,15.4,10.6,29.2,16.3,43.6c6.6,16.6,11.1,34.7,13.4,52.4c0.4,3.2,3,4.8,5.5,4.9c-3.1,6.7-5.9,13.3-5.5,21.1c0.4,7.1,11.3,6.2,11-0.8c-0.6-10.8,7.3-20.3,10.5-30.2c4-12.3,7.8-24.5,14-35.9c3.4-6.3-6.5-11.1-9.9-4.9c-1,1.9-2,3.9-2.9,5.8c-0.8-5-3-9.5-5-14.2c-1.4-3.3-4.7-4-7.4-3c-1.7-4.9-3.3-9.9-4.6-15c0,0,0-0.1,0-0.1c8,7.6,17.1,13.3,28.3,12.4c7.1-0.6,6.2-11.5-0.8-11c-9,0.7-16.5-6.3-22.4-12.2c-6.7-6.7-12.2-14.4-18.5-21.4c-3.6-4-9.1,0.3-9.1,4.6v2c0,3.2,2.2,4.7,4.6,4.9c4.6,5.4,9.3,11.7,14.6,17.3c-3.5-0.8-8.2,2.4-7,7.2c4.1,15.7,11.6,30.4,13.7,46.6c0.4,2.9,2.5,4.5,4.8,4.8c-0.9,2.9-1.9,5.8-2.8,8.7c-0.3,0.9-0.6,1.7-0.9,2.5c-2.4-15.5-6.6-30.5-11.5-45.4c-5.2-16-15.4-30.6-17.7-47.5c-0.3-2.1-1.5-3.5-3-4.3C146.4,69.5,186.1,49,228,43.6c26.9-3.5,54-1.1,79.9,6.1c-8.6,3.2-17.1,7.5-19.8,16.6c-3.3-0.5-6.8,1.5-6.1,5.6c3.1,18.9,8.4,37.3,13.3,55.8c4.1,15.2,3.2,31.9,11.6,45.8c3.7,6.1,12.8-0.1,9.1-6.2c-6.2-10.4-6.7-23.4-8.7-35.5c1.9-1.2,3.2-3.5,2.3-6.3c-2.1-7.1-4.3-14.2-6.1-21.4c-1.3-5.3-4-14.2-1.2-19.4c3-5.4-4-9.7-8.2-6.8c-0.4-1.8-0.7-3.6-1-5.4c2.4,0,4.8-1.3,5.6-4.2c0.7-2.4,3.2-4.2,5.8-5.5c-0.4,0.8-0.7,1.7-0.7,2.8c0.2,17.8,6.4,34.8,10.9,51.8c4.9,18.8,7.3,38,13.4,56.6c0.4,1.2,1,2,1.7,2.6c-5.7,2.8-11.4,5.8-16.7,9.4c-2.5-0.2-5.3,1-6.2,4.1c-3.8,12.8-4,26.3-6.6,39.4c-2.5,12.5-5.7,25.2-6.3,38c-0.1,0.4-0.1,0.7-0.1,1.1v2c0,3.9,3.3,5.4,6.3,4.8c0,1,0.2,2,0.8,2.9c-3.5-1.1-7.9,0.8-7.1,5.3c5.4,30.7,27.6,55.9,31,87c0.8,7,11.7,6.2,11-0.8c-3.4-31.4-25.6-56.3-31-87c0-0.2-0.1-0.3-0.1-0.4c1.7,1.6,3.5,3.2,5.4,4.8c5.6,22.9,15.3,44.5,25,65.9c1.3,2.9,4.2,3.8,6.7,3.2c-2.6,12.6-9.4,24.4-11.9,36.9c-1.4,7,9.4,9,10.8,2.1c3.4-16.6,12.7-31.2,13.1-48.5c0.1-6.1-7.9-6.3-10.3-1.8c-1.1-2.4-2.2-4.8-3.2-7.2c1.3-1.3,1.9-3.2,1.2-5.4c-1.8-5.7-2.7-11.7-3.7-17.6c-0.8-4.6-5.8-5.8-8.8-4.1c-1.5-3.9-2.8-7.8-4.1-11.8c9.2,7.4,17.7,15.4,22.2,26.1c2.7,6.5,13.1,2.9,10.4-3.6c-7.4-17.7-23.3-28.2-37.6-40.2c-0.1-0.6-0.3-1.2-0.4-1.8c-0.7-3.2-3.3-4.1-5.7-3.5c-1.7-1.5-3.3-3.1-4.9-4.8c-1.3-1.4-2.8-1.8-4.1-1.6c0.2-13.2,4-26.6,6.6-39.6c2.2-11.1,2.6-22.4,5.2-33.3c0.6-0.2,1.2-0.4,1.8-0.9c10.4-7.4,22.3-12.3,33.6-18.2c10.7-5.6,19.1-15.1,30.3-19.8c2.4,2.4,5.6,4.2,8.4,6.2c6.8,4.6,11.7,11,16.5,17.5c10.8,14.5,23,27.8,33.8,42.1c-0.1,2.9,1.9,6.1,5.7,6.1h2c2.7,0,4.6-2.2,5-4.7c4.1,13,14.1,23.1,18.4,36c0.4,1.4,1.2,2.3,2.2,2.9c-0.1,2-0.1,3.9-0.3,5.9C470.6,260.5,466.4,250.7,458.6,245.5z"></path>
</svg>